<?xml version="1.0" encoding="UTF-8" standalone="no"?>
<!-- Created with Inkscape (http://www.inkscape.org/) -->

<svg
   xmlns:dc="http://purl.org/dc/elements/1.1/"
   xmlns:cc="http://creativecommons.org/ns#"
   xmlns:rdf="http://www.w3.org/1999/02/22-rdf-syntax-ns#"
   xmlns:svg="http://www.w3.org/2000/svg"
   xmlns="http://www.w3.org/2000/svg"
   xmlns:sodipodi="http://sodipodi.sourceforge.net/DTD/sodipodi-0.dtd"
   xmlns:inkscape="http://www.inkscape.org/namespaces/inkscape"
   version="1.1"
   id="svg2"
   xml:space="preserve"
   width="401.02505"
   height="261.93121"
   viewBox="0 0 401.02505 261.93121"
   sodipodi:docname="molssi_main.svg"
   inkscape:version="0.92.2 5c3e80d, 2017-08-06"
   inkscape:export-filename="/Users/jessica/Desktop/molssi_branding/logos/main_logo/molssi_main_logo.png"
   inkscape:export-xdpi="500"
   inkscape:export-ydpi="500"><metadata
     id="metadata8"><rdf:RDF><cc:Work
         rdf:about=""><dc:format>image/svg+xml</dc:format><dc:type
           rdf:resource="http://purl.org/dc/dcmitype/StillImage" /><dc:title /></cc:Work></rdf:RDF></metadata><defs
     id="defs6"><clipPath
       clipPathUnits="userSpaceOnUse"
       id="clipPath30"><path
         d="M 0,0 H 1224 V 792 H 0 Z"
         id="path28"
         inkscape:connector-curvature="0" /></clipPath><clipPath
       clipPathUnits="userSpaceOnUse"
       id="clipPath40"><path
         d="m 1092.24,28.742 h 76.063 v 21.676 h -76.063 z"
         id="path38"
         inkscape:connector-curvature="0" /></clipPath><clipPath
       clipPathUnits="userSpaceOnUse"
       id="clipPath52"><path
         d="m 1092.24,28.742 h 76.063 v 21.676 h -76.063 z"
         id="path50"
         inkscape:connector-curvature="0" /></clipPath><clipPath
       clipPathUnits="userSpaceOnUse"
       id="clipPath84"><path
         d="M 0,0 H 1224 V 792 H 0 Z"
         id="path82"
         inkscape:connector-curvature="0" /></clipPath><clipPath
       clipPathUnits="userSpaceOnUse"
       id="clipPath100"><path
         d="M 320.4,190.677 H 903.6 V 601.324 H 320.4 Z"
         id="path98"
         inkscape:connector-curvature="0" /></clipPath><clipPath
       clipPathUnits="userSpaceOnUse"
       id="clipPath3896"><rect
         style="fill:#ffffff;fill-opacity:0;stroke-width:0.77094638"
         id="rect3898"
         width="279.5542"
         height="183.32574"
         x="306.26874"
         y="-604.54797"
         transform="scale(1,-1)" /></clipPath></defs><sodipodi:namedview
     pagecolor="#ffffff"
     bordercolor="#666666"
     borderopacity="1"
     objecttolerance="10"
     gridtolerance="10"
     guidetolerance="10"
     inkscape:pageopacity="0"
     inkscape:pageshadow="2"
     inkscape:window-width="1089"
     inkscape:window-height="951"
     id="namedview4"
     showgrid="false"
     inkscape:zoom="1.0677715"
     inkscape:cx="237.50802"
     inkscape:cy="5.3257264"
     inkscape:window-x="1406"
     inkscape:window-y="104"
     inkscape:window-maximized="0"
     inkscape:current-layer="g10" /><g
     id="g10"
     inkscape:groupmode="layer"
     inkscape:label="MolSSI Logo 2"
     transform="matrix(1.3333333,0,0,-1.3333333,-395.05787,810.68973)"
     style="display:inline"><g
       id="g94"
       transform="translate(-2.2489577,0.18017277)"
       clip-path="url(#clipPath3896)"
       style="display:inline"><g
         id="g96"
         clip-path="url(#clipPath100)"
         style="display:inline"><path
           d="m 381.5256,554.2491 c -6.025,0 -10.927,-4.902 -10.927,-10.927 0,-6.024 4.902,-10.926 10.927,-10.926 6.025,0 10.926,4.902 10.926,10.926 0,6.025 -4.901,10.927 -10.926,10.927 m 0,-29.881 c -10.451,0 -18.955,8.503 -18.955,18.954 0,10.453 8.504,18.955 18.955,18.955 10.451,0 18.954,-8.502 18.954,-18.955 0,-10.451 -8.503,-18.954 -18.954,-18.954"
           style="fill:#393536;fill-opacity:1;fill-rule:nonzero;stroke:none"
           id="path102"
           inkscape:connector-curvature="0" /><path
           d="m 411.1422,593.2953 c -3.612,0 -6.55,-2.938 -6.55,-6.55 0,-3.612 2.938,-6.551 6.55,-6.551 3.612,0 6.55,2.939 6.55,6.551 0,3.612 -2.938,6.55 -6.55,6.55 m 0,-21.129 c -8.038,0 -14.578,6.54 -14.578,14.579 0,8.038 6.54,14.578 14.578,14.578 8.038,0 14.578,-6.54 14.578,-14.578 0,-8.039 -6.54,-14.579 -14.578,-14.579"
           style="fill:#393536;fill-opacity:1;fill-rule:nonzero;stroke:none"
           id="path104"
           inkscape:connector-curvature="0" /><path
           d="m 395.1851,552.5803 -6.95,4.018 14.219,24.592 6.95,-4.019 z"
           style="fill:#393536;fill-opacity:1;fill-rule:nonzero;stroke:none"
           id="path106"
           inkscape:connector-curvature="0" /><path
           d="m 387.4851,505.9364 -10.724,20.592 7.121,3.708 10.724,-20.593 z"
           style="fill:#393536;fill-opacity:1;fill-rule:nonzero;stroke:none"
           id="path108"
           inkscape:connector-curvature="0" /><path
           d="m 359.3534,445.995 c 0,-6.025 4.902,-10.927 10.926,-10.927 6.025,0 10.926,4.902 10.926,10.927 0,6.025 -4.901,10.926 -10.926,10.926 -6.024,0 -10.926,-4.901 -10.926,-10.926 m -8.028,0 c 0,10.451 8.502,18.954 18.954,18.954 10.452,0 18.955,-8.503 18.955,-18.954 0,-10.452 -8.503,-18.955 -18.955,-18.955 -10.452,0 -18.954,8.503 -18.954,18.955"
           style="fill:#393536;fill-opacity:1;fill-rule:nonzero;stroke:none"
           id="path110"
           inkscape:connector-curvature="0" /><path
           d="m 382.2506,457.8433 14.064,24.33 -6.951,4.018 -14.063,-24.33 z"
           style="fill:#393536;fill-opacity:1;fill-rule:nonzero;stroke:none"
           id="path112"
           inkscape:connector-curvature="0" /><path
           d="m 351.9784,475.7522 v 25.9 l -8.487,-16.851 h -5.867 l -8.549,16.851 v -25.9 h -8.675 v 44.435 h 8.55 l 11.608,-24.026 11.545,24.026 h 8.55 v -44.435 z"
           style="fill:#ed1c24;fill-opacity:1;fill-rule:nonzero;stroke:none"
           id="path114"
           inkscape:connector-curvature="0" /><path
           d="m 445.9569,475.7522 c -6.678,0 -9.487,4.681 -9.487,9.299 v 35.136 h 8.113 v -34.636 c 0,-1.935 0.812,-2.934 2.872,-2.934 h 3.119 v -6.865 z"
           style="fill:#ed1c24;fill-opacity:1;fill-rule:nonzero;stroke:none"
           id="path116"
           inkscape:connector-curvature="0" /><path
           d="m 482.4002,475.3787 c -6.739,0 -11.857,1.435 -16.226,5.866 l 5.617,5.617 c 2.809,-2.809 6.615,-3.745 10.734,-3.745 5.118,0 7.863,1.934 7.863,5.492 0,1.56 -0.437,2.87 -1.372,3.744 -0.874,0.812 -1.873,1.249 -3.933,1.56 l -5.366,0.75 c -3.808,0.561 -6.616,1.746 -8.612,3.681 -2.122,2.122 -3.184,4.994 -3.184,8.737 0,7.926 5.866,13.481 15.478,13.481 6.115,0 10.547,-1.499 14.352,-5.18 l -5.491,-5.43 c -2.808,2.685 -6.178,3.059 -9.111,3.059 -4.619,0 -6.865,-2.559 -6.865,-5.617 0,-1.124 0.374,-2.309 1.311,-3.183 0.873,-0.811 2.308,-1.499 4.119,-1.747 l 5.242,-0.749 c 4.057,-0.562 6.614,-1.686 8.487,-3.433 2.372,-2.247 3.433,-5.492 3.433,-9.423 0,-8.612 -7.177,-13.48 -16.476,-13.48"
           style="fill:#393536;fill-opacity:1;fill-rule:nonzero;stroke:none"
           id="path118"
           inkscape:connector-curvature="0" /><path
           d="m 531.38,475.3787 c -6.739,0 -11.857,1.435 -16.226,5.866 l 5.617,5.617 c 2.808,-2.809 6.615,-3.745 10.734,-3.745 5.118,0 7.863,1.934 7.863,5.492 0,1.56 -0.437,2.87 -1.372,3.744 -0.874,0.812 -1.873,1.249 -3.933,1.56 l -5.366,0.75 c -3.808,0.561 -6.616,1.746 -8.613,3.681 -2.121,2.122 -3.183,4.994 -3.183,8.737 0,7.926 5.867,13.481 15.478,13.481 6.115,0 10.547,-1.499 14.353,-5.18 l -5.492,-5.43 c -2.808,2.685 -6.178,3.059 -9.111,3.059 -4.619,0 -6.865,-2.559 -6.865,-5.617 0,-1.124 0.374,-2.309 1.311,-3.183 0.874,-0.811 2.308,-1.499 4.118,-1.747 l 5.243,-0.749 c 4.056,-0.562 6.615,-1.686 8.488,-3.433 2.371,-2.247 3.432,-5.492 3.432,-9.423 0,-8.612 -7.177,-13.48 -16.476,-13.48"
           style="fill:#393536;fill-opacity:1;fill-rule:nonzero;stroke:none"
           id="path120"
           inkscape:connector-curvature="0" /><path
           d="m 568.51,475.752 h 8.674 v 44.435 h -8.674 z"
           style="fill:#393536;fill-opacity:1;fill-rule:nonzero;stroke:none"
           id="path122"
           inkscape:connector-curvature="0" /><path
           d="m 398.2853,505.0527 c -4.876,0 -8.842,-3.967 -8.842,-8.842 0,-4.877 3.966,-8.843 8.842,-8.843 4.876,0 8.842,3.966 8.842,8.843 0,4.875 -3.966,8.842 -8.842,8.842 m 0,-25.713 c -9.303,0 -16.871,7.568 -16.871,16.871 0,9.302 7.568,16.87 16.871,16.87 9.303,0 16.87,-7.568 16.87,-16.87 0,-9.303 -7.567,-16.871 -16.87,-16.871"
           style="fill:#ed1c24;fill-opacity:1;fill-rule:nonzero;stroke:none"
           id="path124"
           inkscape:connector-curvature="0" /><path
           d="m 381.5256,317.8856 c -6.025,0 -10.927,-4.902 -10.927,-10.927 0,-6.024 4.902,-10.925 10.927,-10.925 6.025,0 10.926,4.901 10.926,10.925 0,6.025 -4.901,10.927 -10.926,10.927 m 0,-29.881 c -10.451,0 -18.955,8.503 -18.955,18.954 0,10.453 8.504,18.955 18.955,18.955 10.451,0 18.954,-8.502 18.954,-18.955 0,-10.451 -8.503,-18.954 -18.954,-18.954"
           style="fill:#ed1c24;fill-opacity:1;fill-rule:nonzero;stroke:none"
           id="path126"
           inkscape:connector-curvature="0" /><path
           d="m 411.1422,356.9318 c -3.612,0 -6.55,-2.938 -6.55,-6.55 0,-3.612 2.938,-6.551 6.55,-6.551 3.612,0 6.55,2.939 6.55,6.551 0,3.612 -2.938,6.55 -6.55,6.55 m 0,-21.129 c -8.038,0 -14.578,6.54 -14.578,14.579 0,8.038 6.54,14.578 14.578,14.578 8.038,0 14.578,-6.54 14.578,-14.578 0,-8.039 -6.54,-14.579 -14.578,-14.579"
           style="fill:#ed1c24;fill-opacity:1;fill-rule:nonzero;stroke:none"
           id="path128"
           inkscape:connector-curvature="0" /><path
           d="m 395.1851,316.2168 -6.95,4.018 14.219,24.592 6.95,-4.019 z"
           style="fill:#ed1c24;fill-opacity:1;fill-rule:nonzero;stroke:none"
           id="path130"
           inkscape:connector-curvature="0" /><path
           d="m 387.4851,269.5729 -10.724,20.592 7.121,3.708 10.724,-20.593 z"
           style="fill:#ed1c24;fill-opacity:1;fill-rule:nonzero;stroke:none"
           id="path132"
           inkscape:connector-curvature="0" /><path
           d="m 359.3534,209.6314 c 0,-6.025 4.902,-10.927 10.926,-10.927 6.025,0 10.926,4.902 10.926,10.927 0,6.025 -4.901,10.926 -10.926,10.926 -6.024,0 -10.926,-4.901 -10.926,-10.926 m -8.028,0 c 0,10.451 8.502,18.954 18.954,18.954 10.452,0 18.955,-8.503 18.955,-18.954 0,-10.452 -8.503,-18.955 -18.955,-18.955 -10.452,0 -18.954,8.503 -18.954,18.955"
           style="fill:#ed1c24;fill-opacity:1;fill-rule:nonzero;stroke:none"
           id="path134"
           inkscape:connector-curvature="0" /><path
           d="m 382.2506,221.4798 14.064,24.33 -6.951,4.018 -14.063,-24.33 z"
           style="fill:#ed1c24;fill-opacity:1;fill-rule:nonzero;stroke:none"
           id="path136"
           inkscape:connector-curvature="0" /><path
           d="m 351.9784,239.3887 v 25.9 l -8.487,-16.851 h -5.867 l -8.549,16.851 v -25.9 h -8.675 v 44.435 h 8.55 l 11.608,-24.026 11.545,24.026 h 8.55 v -44.435 z"
           style="fill:#ed1c24;fill-opacity:1;fill-rule:nonzero;stroke:none"
           id="path138"
           inkscape:connector-curvature="0" /><path
           d="m 445.9569,239.3887 c -6.678,0 -9.487,4.682 -9.487,9.299 v 35.136 h 8.113 v -34.636 c 0,-1.935 0.812,-2.934 2.872,-2.934 h 3.119 v -6.865 z"
           style="fill:#ed1c24;fill-opacity:1;fill-rule:nonzero;stroke:none"
           id="path140"
           inkscape:connector-curvature="0" /><path
           d="m 482.4002,239.0152 c -6.739,0 -11.857,1.435 -16.226,5.866 l 5.617,5.617 c 2.809,-2.809 6.615,-3.745 10.734,-3.745 5.118,0 7.863,1.934 7.863,5.492 0,1.56 -0.437,2.87 -1.372,3.744 -0.874,0.812 -1.873,1.248 -3.933,1.56 l -5.366,0.75 c -3.808,0.561 -6.616,1.746 -8.612,3.681 -2.122,2.122 -3.184,4.994 -3.184,8.737 0,7.926 5.866,13.481 15.478,13.481 6.115,0 10.547,-1.499 14.352,-5.18 l -5.491,-5.43 c -2.808,2.685 -6.178,3.059 -9.111,3.059 -4.619,0 -6.865,-2.559 -6.865,-5.617 0,-1.124 0.374,-2.309 1.311,-3.183 0.873,-0.811 2.308,-1.499 4.119,-1.747 l 5.242,-0.749 c 4.057,-0.562 6.614,-1.686 8.487,-3.433 2.372,-2.247 3.433,-5.492 3.433,-9.423 0,-8.612 -7.177,-13.48 -16.476,-13.48"
           style="fill:#393536;fill-opacity:1;fill-rule:nonzero;stroke:none"
           id="path142"
           inkscape:connector-curvature="0" /><path
           d="m 531.38,239.0152 c -6.739,0 -11.857,1.435 -16.226,5.866 l 5.617,5.617 c 2.808,-2.809 6.615,-3.745 10.734,-3.745 5.118,0 7.863,1.934 7.863,5.492 0,1.56 -0.437,2.87 -1.372,3.744 -0.874,0.812 -1.873,1.248 -3.933,1.56 l -5.366,0.75 c -3.808,0.561 -6.616,1.746 -8.613,3.681 -2.121,2.122 -3.183,4.994 -3.183,8.737 0,7.926 5.867,13.481 15.478,13.481 6.115,0 10.547,-1.499 14.353,-5.18 l -5.492,-5.43 c -2.808,2.685 -6.178,3.059 -9.111,3.059 -4.619,0 -6.865,-2.559 -6.865,-5.617 0,-1.124 0.374,-2.309 1.311,-3.183 0.874,-0.811 2.308,-1.499 4.118,-1.747 l 5.243,-0.749 c 4.056,-0.562 6.615,-1.686 8.488,-3.433 2.371,-2.247 3.432,-5.492 3.432,-9.423 0,-8.612 -7.177,-13.48 -16.476,-13.48"
           style="fill:#393536;fill-opacity:1;fill-rule:nonzero;stroke:none"
           id="path144"
           inkscape:connector-curvature="0" /><path
           d="m 568.51,239.389 h 8.674 v 44.435 h -8.674 z"
           style="fill:#393536;fill-opacity:1;fill-rule:nonzero;stroke:none"
           id="path146"
           inkscape:connector-curvature="0" /><path
           d="m 398.2853,268.6891 c -4.876,0 -8.842,-3.967 -8.842,-8.842 0,-4.877 3.966,-8.843 8.842,-8.843 4.876,0 8.842,3.966 8.842,8.843 0,4.875 -3.966,8.842 -8.842,8.842 m 0,-25.713 c -9.303,0 -16.871,7.568 -16.871,16.871 0,9.302 7.568,16.87 16.871,16.87 9.303,0 16.87,-7.568 16.87,-16.87 0,-9.303 -7.567,-16.871 -16.87,-16.871"
           style="fill:#ed1c24;fill-opacity:1;fill-rule:nonzero;stroke:none"
           id="path148"
           inkscape:connector-curvature="0" /><path
           d="m 707.942,554.2491 c -6.025,0 -10.927,-4.902 -10.927,-10.927 0,-6.024 4.902,-10.926 10.927,-10.926 6.025,0 10.926,4.902 10.926,10.926 0,6.025 -4.901,10.927 -10.926,10.927 m 0,-29.881 c -10.452,0 -18.955,8.503 -18.955,18.954 0,10.453 8.503,18.955 18.955,18.955 10.451,0 18.954,-8.502 18.954,-18.955 0,-10.451 -8.503,-18.954 -18.954,-18.954"
           style="fill:#ed1c24;fill-opacity:1;fill-rule:nonzero;stroke:none"
           id="path150"
           inkscape:connector-curvature="0" /><path
           d="m 737.5586,593.2953 c -3.612,0 -6.55,-2.938 -6.55,-6.55 0,-3.612 2.938,-6.551 6.55,-6.551 3.612,0 6.55,2.939 6.55,6.551 0,3.612 -2.938,6.55 -6.55,6.55 m 0,-21.129 c -8.039,0 -14.578,6.54 -14.578,14.579 0,8.038 6.539,14.578 14.578,14.578 8.038,0 14.578,-6.54 14.578,-14.578 0,-8.039 -6.54,-14.579 -14.578,-14.579"
           style="fill:#ed1c24;fill-opacity:1;fill-rule:nonzero;stroke:none"
           id="path152"
           inkscape:connector-curvature="0" /><path
           d="m 721.6013,552.5803 -6.95,4.018 14.219,24.592 6.95,-4.019 z"
           style="fill:#ed1c24;fill-opacity:1;fill-rule:nonzero;stroke:none"
           id="path154"
           inkscape:connector-curvature="0" /><path
           d="m 713.9015,505.9364 -10.724,20.592 7.121,3.708 10.724,-20.593 z"
           style="fill:#ed1c24;fill-opacity:1;fill-rule:nonzero;stroke:none"
           id="path156"
           inkscape:connector-curvature="0" /><path
           d="m 685.7697,445.995 c 0,-6.025 4.902,-10.927 10.926,-10.927 6.025,0 10.926,4.902 10.926,10.927 0,6.025 -4.901,10.926 -10.926,10.926 -6.024,0 -10.926,-4.901 -10.926,-10.926 m -8.028,0 c 0,10.451 8.502,18.954 18.954,18.954 10.452,0 18.954,-8.503 18.954,-18.954 0,-10.452 -8.502,-18.955 -18.954,-18.955 -10.452,0 -18.954,8.503 -18.954,18.955"
           style="fill:#ed1c24;fill-opacity:1;fill-rule:nonzero;stroke:none"
           id="path158"
           inkscape:connector-curvature="0" /><path
           d="m 708.667,457.8433 14.064,24.33 -6.951,4.018 -14.064,-24.33 z"
           style="fill:#ed1c24;fill-opacity:1;fill-rule:nonzero;stroke:none"
           id="path160"
           inkscape:connector-curvature="0" /><path
           d="m 678.3947,475.7522 v 25.9 l -8.487,-16.851 h -5.867 l -8.549,16.851 v -25.9 h -8.675 v 44.435 h 8.55 l 11.608,-24.026 11.545,24.026 h 8.55 v -44.435 z"
           style="fill:#393536;fill-opacity:1;fill-rule:nonzero;stroke:none"
           id="path162"
           inkscape:connector-curvature="0" /><path
           d="m 772.3732,475.7522 c -6.678,0 -9.487,4.681 -9.487,9.299 v 35.136 h 8.113 v -34.636 c 0,-1.935 0.812,-2.934 2.872,-2.934 h 3.119 v -6.865 z"
           style="fill:#393536;fill-opacity:1;fill-rule:nonzero;stroke:none"
           id="path164"
           inkscape:connector-curvature="0" /><path
           d="m 808.8165,475.3787 c -6.739,0 -11.857,1.435 -16.226,5.866 l 5.617,5.617 c 2.809,-2.809 6.615,-3.745 10.734,-3.745 5.118,0 7.863,1.934 7.863,5.492 0,1.56 -0.437,2.87 -1.372,3.744 -0.874,0.812 -1.873,1.249 -3.933,1.56 l -5.366,0.75 c -3.808,0.561 -6.616,1.746 -8.612,3.681 -2.122,2.122 -3.184,4.994 -3.184,8.737 0,7.926 5.866,13.481 15.478,13.481 6.115,0 10.547,-1.499 14.352,-5.18 l -5.491,-5.43 c -2.808,2.685 -6.178,3.059 -9.111,3.059 -4.619,0 -6.865,-2.559 -6.865,-5.617 0,-1.124 0.374,-2.309 1.311,-3.183 0.874,-0.811 2.308,-1.499 4.119,-1.747 l 5.242,-0.749 c 4.057,-0.562 6.615,-1.686 8.487,-3.433 2.372,-2.247 3.433,-5.492 3.433,-9.423 0,-8.612 -7.177,-13.48 -16.476,-13.48"
           style="fill:#393536;fill-opacity:1;fill-rule:nonzero;stroke:none"
           id="path166"
           inkscape:connector-curvature="0" /><path
           d="m 857.7964,475.3787 c -6.739,0 -11.857,1.435 -16.226,5.866 l 5.617,5.617 c 2.808,-2.809 6.615,-3.745 10.734,-3.745 5.118,0 7.863,1.934 7.863,5.492 0,1.56 -0.437,2.87 -1.373,3.744 -0.873,0.812 -1.872,1.249 -3.932,1.56 l -5.366,0.75 c -3.808,0.561 -6.616,1.746 -8.613,3.681 -2.121,2.122 -3.183,4.994 -3.183,8.737 0,7.926 5.867,13.481 15.478,13.481 6.115,0 10.547,-1.499 14.353,-5.18 l -5.492,-5.43 c -2.808,2.685 -6.178,3.059 -9.111,3.059 -4.619,0 -6.865,-2.559 -6.865,-5.617 0,-1.124 0.374,-2.309 1.311,-3.183 0.874,-0.811 2.308,-1.499 4.118,-1.747 l 5.242,-0.749 c 4.057,-0.562 6.616,-1.686 8.489,-3.433 2.371,-2.247 3.432,-5.492 3.432,-9.423 0,-8.612 -7.177,-13.48 -16.476,-13.48"
           style="fill:#393536;fill-opacity:1;fill-rule:nonzero;stroke:none"
           id="path168"
           inkscape:connector-curvature="0" /><path
           d="m 894.926,475.752 h 8.674 v 44.435 h -8.674 z"
           style="fill:#393536;fill-opacity:1;fill-rule:nonzero;stroke:none"
           id="path170"
           inkscape:connector-curvature="0" /><path
           d="m 724.7018,505.0527 c -4.876,0 -8.843,-3.967 -8.843,-8.842 0,-4.877 3.967,-8.843 8.843,-8.843 4.876,0 8.842,3.966 8.842,8.843 0,4.875 -3.966,8.842 -8.842,8.842 m 0,-25.713 c -9.303,0 -16.871,7.568 -16.871,16.871 0,9.302 7.568,16.87 16.871,16.87 9.302,0 16.87,-7.568 16.87,-16.87 0,-9.303 -7.568,-16.871 -16.87,-16.871"
           style="fill:#393536;fill-opacity:1;fill-rule:nonzero;stroke:none"
           id="path172"
           inkscape:connector-curvature="0" /><path
           d="m 707.942,317.8856 c -6.025,0 -10.927,-4.902 -10.927,-10.927 0,-6.024 4.902,-10.925 10.927,-10.925 6.025,0 10.926,4.901 10.926,10.925 0,6.025 -4.901,10.927 -10.926,10.927 m 0,-29.881 c -10.452,0 -18.955,8.503 -18.955,18.954 0,10.453 8.503,18.955 18.955,18.955 10.451,0 18.954,-8.502 18.954,-18.955 0,-10.451 -8.503,-18.954 -18.954,-18.954"
           style="fill:#393536;fill-opacity:1;fill-rule:nonzero;stroke:none"
           id="path174"
           inkscape:connector-curvature="0" /><path
           d="m 737.5586,356.9318 c -3.612,0 -6.55,-2.938 -6.55,-6.55 0,-3.612 2.938,-6.551 6.55,-6.551 3.612,0 6.55,2.939 6.55,6.551 0,3.612 -2.938,6.55 -6.55,6.55 m 0,-21.129 c -8.039,0 -14.578,6.54 -14.578,14.579 0,8.038 6.539,14.578 14.578,14.578 8.038,0 14.578,-6.54 14.578,-14.578 0,-8.039 -6.54,-14.579 -14.578,-14.579"
           style="fill:#393536;fill-opacity:1;fill-rule:nonzero;stroke:none"
           id="path176"
           inkscape:connector-curvature="0" /><path
           d="m 721.6013,316.2168 -6.95,4.018 14.219,24.592 6.95,-4.019 z"
           style="fill:#393536;fill-opacity:1;fill-rule:nonzero;stroke:none"
           id="path178"
           inkscape:connector-curvature="0" /><path
           d="m 713.9015,269.5729 -10.724,20.592 7.121,3.708 10.724,-20.593 z"
           style="fill:#393536;fill-opacity:1;fill-rule:nonzero;stroke:none"
           id="path180"
           inkscape:connector-curvature="0" /><path
           d="m 685.7697,209.6314 c 0,-6.025 4.902,-10.927 10.926,-10.927 6.025,0 10.926,4.902 10.926,10.927 0,6.025 -4.901,10.926 -10.926,10.926 -6.024,0 -10.926,-4.901 -10.926,-10.926 m -8.028,0 c 0,10.451 8.502,18.954 18.954,18.954 10.452,0 18.954,-8.503 18.954,-18.954 0,-10.452 -8.502,-18.955 -18.954,-18.955 -10.452,0 -18.954,8.503 -18.954,18.955"
           style="fill:#393536;fill-opacity:1;fill-rule:nonzero;stroke:none"
           id="path182"
           inkscape:connector-curvature="0" /><path
           d="m 708.667,221.4798 14.064,24.33 -6.951,4.018 -14.064,-24.33 z"
           style="fill:#393536;fill-opacity:1;fill-rule:nonzero;stroke:none"
           id="path184"
           inkscape:connector-curvature="0" /><path
           d="m 678.3947,239.3887 v 25.9 l -8.487,-16.851 h -5.867 l -8.549,16.851 v -25.9 h -8.675 v 44.435 h 8.55 l 11.608,-24.026 11.545,24.026 h 8.55 v -44.435 z"
           style="fill:#393536;fill-opacity:1;fill-rule:nonzero;stroke:none"
           id="path186"
           inkscape:connector-curvature="0" /><path
           d="m 772.3732,239.3887 c -6.678,0 -9.487,4.682 -9.487,9.299 v 35.136 h 8.113 v -34.636 c 0,-1.935 0.812,-2.934 2.872,-2.934 h 3.119 v -6.865 z"
           style="fill:#393536;fill-opacity:1;fill-rule:nonzero;stroke:none"
           id="path188"
           inkscape:connector-curvature="0" /><path
           d="m 808.8165,239.0152 c -6.739,0 -11.857,1.435 -16.226,5.866 l 5.617,5.617 c 2.809,-2.809 6.615,-3.745 10.734,-3.745 5.118,0 7.863,1.934 7.863,5.492 0,1.56 -0.437,2.87 -1.372,3.744 -0.874,0.812 -1.873,1.248 -3.933,1.56 l -5.366,0.75 c -3.808,0.561 -6.616,1.746 -8.612,3.681 -2.122,2.122 -3.184,4.994 -3.184,8.737 0,7.926 5.866,13.481 15.478,13.481 6.115,0 10.547,-1.499 14.352,-5.18 l -5.491,-5.43 c -2.808,2.685 -6.178,3.059 -9.111,3.059 -4.619,0 -6.865,-2.559 -6.865,-5.617 0,-1.124 0.374,-2.309 1.311,-3.183 0.874,-0.811 2.308,-1.499 4.119,-1.747 l 5.242,-0.749 c 4.057,-0.562 6.615,-1.686 8.487,-3.433 2.372,-2.247 3.433,-5.492 3.433,-9.423 0,-8.612 -7.177,-13.48 -16.476,-13.48"
           style="fill:#393536;fill-opacity:1;fill-rule:nonzero;stroke:none"
           id="path190"
           inkscape:connector-curvature="0" /><path
           d="m 857.7964,239.0152 c -6.739,0 -11.857,1.435 -16.226,5.866 l 5.617,5.617 c 2.808,-2.809 6.615,-3.745 10.734,-3.745 5.118,0 7.863,1.934 7.863,5.492 0,1.56 -0.437,2.87 -1.373,3.744 -0.873,0.812 -1.872,1.248 -3.932,1.56 l -5.366,0.75 c -3.808,0.561 -6.616,1.746 -8.613,3.681 -2.121,2.122 -3.183,4.994 -3.183,8.737 0,7.926 5.867,13.481 15.478,13.481 6.115,0 10.547,-1.499 14.353,-5.18 l -5.492,-5.43 c -2.808,2.685 -6.178,3.059 -9.111,3.059 -4.619,0 -6.865,-2.559 -6.865,-5.617 0,-1.124 0.374,-2.309 1.311,-3.183 0.874,-0.811 2.308,-1.499 4.118,-1.747 l 5.242,-0.749 c 4.057,-0.562 6.616,-1.686 8.489,-3.433 2.371,-2.247 3.432,-5.492 3.432,-9.423 0,-8.612 -7.177,-13.48 -16.476,-13.48"
           style="fill:#393536;fill-opacity:1;fill-rule:nonzero;stroke:none"
           id="path192"
           inkscape:connector-curvature="0" /><path
           d="m 894.926,239.389 h 8.674 v 44.435 h -8.674 z"
           style="fill:#393536;fill-opacity:1;fill-rule:nonzero;stroke:none"
           id="path194"
           inkscape:connector-curvature="0" /><path
           d="m 724.7018,268.6891 c -4.876,0 -8.843,-3.967 -8.843,-8.842 0,-4.877 3.967,-8.843 8.843,-8.843 4.876,0 8.842,3.966 8.842,8.843 0,4.875 -3.966,8.842 -8.842,8.842 m 0,-25.713 c -9.303,0 -16.871,7.568 -16.871,16.871 0,9.302 7.568,16.87 16.871,16.87 9.302,0 16.87,-7.568 16.87,-16.87 0,-9.303 -7.568,-16.871 -16.87,-16.871"
           style="fill:#393536;fill-opacity:1;fill-rule:nonzero;stroke:none"
           id="path196"
           inkscape:connector-curvature="0" /></g></g></g></svg>