<svg xmlns="http://www.w3.org/2000/svg" xmlns:xlink="http://www.w3.org/1999/xlink" viewBox="0 0 334.12 110.72"><defs><style>.a,.d{fill:none;}.b{fill:#0080c7;}.c{fill:#231f20;}.d{stroke:#bcbec0;stroke-miterlimit:10;stroke-width:2.68px;}.e{clip-path:url(#a);}.f{clip-path:url(#b);}</style><clipPath id="a" transform="translate(-0.93 -227.42)"><path class="a" d="M339.33,138.32A11.41,11.41,0,0,0,320,131.78h0l-.13.14-.33.36a32.33,32.33,0,0,1-15.72,8.63,14,14,0,0,0-1.69.48l-30.23,6h0c-8.51,1.42-17.43-2.42-18.79-3l-11.4-6.44h0l-.1,0-2.21-1.25c-6.72-4.52-10.41-13.76-10.91-15.06l-3.08-12a52.56,52.56,0,0,1,3-27.39l11-20a5.27,5.27,0,0,0,.93-1.39c2.35-4.34,7.53-8.71,11.27-11.49a25.33,25.33,0,0,1,9.26-3.66L292.48,41c9.76-1.12,19.92,1.89,23.14,3,.31.12.61.22.93.32l.12,0h0a11.42,11.42,0,1,0,1.63-22.28,10.85,10.85,0,0,0-1.64.36h0l-.21.07-.77.28c-7.37,2.35-18.83.16-22.8-.73l-9.42-2.66c-5.62-2.16-11.84-7.81-14.36-10.27A12.68,12.68,0,0,0,268,8l-.06-.07h0a11.4,11.4,0,0,0-18.75,10.2s.15,10.59-3.94,16.36c-2.15,2.76-5.95,7-14.85,8.39l-.78.11c-6.52.82-13.49-1.38-16.84-2.66a11.13,11.13,0,0,0-1.95-.81l-.07,0h0a11.4,11.4,0,0,0-12.22,18h0l0,0a11.74,11.74,0,0,0,1.6,1.63A38.52,38.52,0,0,1,209,74.79c.2.74.39,1.39.57,2l.47,1.83c1.66,8.15,1.75,18.85-.76,22.94-1.93,3.13-7.64,6.64-10.58,8.29a11.83,11.83,0,0,0-1.78,1h0a11.41,11.41,0,0,0,5.4,20.88h0a11,11,0,0,0,1.52,0c3.46.07,11.88.48,17.29,2.85a11.11,11.11,0,0,1,3.1,2.84,9.3,9.3,0,0,1,1.7,5.58,42.76,42.76,0,0,1-1.17,8.18c-.31,1.05-.62,2-.87,2.66a12.43,12.43,0,0,0-.58,1.58l0,0h0a11.24,11.24,0,0,0-.33,4.64,11.41,11.41,0,0,0,19.54,6.37h0l0,0a10.61,10.61,0,0,0,.92-1.09,24.35,24.35,0,0,1,11.36-7.21,21.68,21.68,0,0,1,13.35,3.06c6.5,4.09,11.59,13.72,11.59,13.72h0a11.42,11.42,0,0,0,20.88-2.75h0a34.4,34.4,0,0,1,9.14-13.81l.33-.3,2.62-2A40,40,0,0,1,328,151.28a12.15,12.15,0,0,0,1.58-.09A11.43,11.43,0,0,0,339.33,138.32Zm-92.14,10.94.15.12c2.17,1.61-1.14,1.46-1.4,1.45a12.75,12.75,0,0,1-5.14-1.7,12.1,12.1,0,0,1-3.67-4.24c-.07-.15-.51-1.21,1.52-.46ZM219.86,125c-1.8,0-4.32-2.83-5.45-7.14-2.46-9.35.33-10.65,1.49-10.8,1-.13,2,2.59,3,5.87l1,4.07C220.78,120.85,221.41,125,219.86,125Zm77.55,24.57c3.41-.64,6.61-1.19,7.79-1.26,2.59-.14,2.09,1.5.13,3.33s-8.91,4.4-17.25,6.11c-7.9,1.62-12.69-.42-12.76-1.92-.06-1.2,5.69-2.85,9.6-3.78ZM267.64,37.42c-5.71.81-11.85,1.76-12.82,1-1.12-.82-1-7.69,8.57-10.82s27.88.12,28.37,3.84c.22,1.66-8.28,3.48-15.23,4.64ZM216.08,73.48c-.83-4.1-1.8-12.53.49-16.18l.1-.15c.12-.16.23-.32.34-.49,4.75-6.36,17.25-7.06,18-5.8s-2,7.59-5.87,14.92-8.44,14.3-9.61,14.2c-.94-.08-2-1.48-2.86-4.09Z"/></clipPath><clipPath id="b" transform="translate(-0.93 -227.42)"><path class="a" d="M170.87,167.2a20,20,0,0,1-11.94-5.47l-.56-.55c-.34-.36-.52-.58-.52-.58l0,0-3.31-3.29a36.72,36.72,0,0,1-5.8-11.35,12.22,12.22,0,0,1-.18-5.2,52.69,52.69,0,0,1,2-5.25c.17-.28,7.9-12.94,19.05-15.1a11.55,11.55,0,0,0,1.2-.19h.06a11.39,11.39,0,0,0,6-18.83h0s-6.37-7.53-7.2-17.45,5.75-19.53,5.75-19.53h0a10,10,0,0,0,2-6.13A11.41,11.41,0,0,0,166.77,46.9a26,26,0,0,1-13.72-7.18l-1.83-2.38c-3-5.19-4.78-15.17-4.78-15.17A11.42,11.42,0,0,0,135,10.75a13,13,0,0,0-8,2.84h0s-16.3,8.55-23,8.12S87.92,6.78,87.92,6.78h0A11.41,11.41,0,0,0,66.28,9.24h0s0,.07,0,.11a12,12,0,0,0-.17,1.48,38.89,38.89,0,0,1-2.67,10.25c-4,5.85-8.08,6.91-9.28,7.1l-.16,0a37.16,37.16,0,0,1-17.09-3.69,11.2,11.2,0,0,0-1.1-.54h0a11.27,11.27,0,0,0-4.43-.89A11.42,11.42,0,0,0,21.23,39.77h0l0,0c.17.32.35.63.55.93a48.36,48.36,0,0,1,5.15,17c.4,8.86-2.68,13.36-4,14.88-4.62,4.87-11.15,7.74-14.33,8.92a12.37,12.37,0,0,0-1.83.64h0a11.42,11.42,0,0,0-.84,20.39h0a11.74,11.74,0,0,0,2.4,1c7.62,3.28,12.11,6.82,14.54,9.23,3.44,4.46,3.68,11,3.7,11.89-1.28,12.5-5.89,19.48-5.89,19.48h0a11.41,11.41,0,0,0,14.06,17h0l.21-.11a7.88,7.88,0,0,0,.76-.4,108.23,108.23,0,0,1,14.48-6.19,8.41,8.41,0,0,1,4.36,0c1.76.64,3.35,3.43,3.56,3.81a41.3,41.3,0,0,1,3.38,11.06,11.41,11.41,0,0,0,20.59,6.79v0l0-.08a11.59,11.59,0,0,0,1.27-2.18,22.74,22.74,0,0,1,8.95-8.22L115,157a43.07,43.07,0,0,1,10.86-2.1c1,0,1.94.08,2.83.16a10.07,10.07,0,0,0,1.24.13,39.5,39.5,0,0,1,4.44.76h0c.24,0,.49.08.74.12h0a32.13,32.13,0,0,1,14.76,6.85l0,0,2.68,2.66,0,0c4.1,3.64,6.45,12.35,7.13,15.2,0,.23.1.46.16.69s.05.23.05.23h0a11.42,11.42,0,1,0,11-14.48Zm-80.14-8.55a25.8,25.8,0,0,1-13.64.12,10.93,10.93,0,0,0-1.1-.37l-.07,0h0s-2.46-.9-5.52-2.42c-.11-.07-2.51-1.5-2.51-2.57s5-1.41,5-1.41l0,0,31.3-1.79h0c2.22,0,3.52.66,3.5,1.2s-2.28,1.54-3.11,1.92ZM40.42,41.44l.07-.08a19.63,19.63,0,0,1,6.55-4c.39-.13,3.22-1,3.61-.12a2.07,2.07,0,0,1-.44,1.95l0,0L38,54.33l.08-.16s-1.07,1.69-2,1.08-.53-4.11-.52-4.19a20.41,20.41,0,0,1,3.7-8.31A12.14,12.14,0,0,0,40.42,41.44Zm80.86,83,.08.11-.09-.09ZM81.79,24.89l-2.64.21c-4.87.41-8.15,1.51-7.46-.52.51-1.5,4.81-1.37,7.07-1.74s6.18-1.24,8.38.24c.89.6.52,1-.55,1.24Zm37.75,4.33c1-1.31,6.23,1.19,9.48,2.82.22.11.43.22.66.32l.15.08c3.11,1.56,13.78,7.48,14.95,9.81.87,1.76-4.63-.15-9.39-2.29l-11.08-6.1C121.21,31.89,118.91,30.06,119.54,29.22Zm37.27,64.6c1.39-3.83,2.87-7.24,3.73-7.33,1.78-.2-2.08,13.46-3,18s-4.29,16.87-7.78,18c-1.13.38,3.08-15.37,3.88-18.57l.3-1.12ZM48.1,145.2c-.19.45-4,.08-4.17.06a13.5,13.5,0,0,1-6-2.68c-2.35-2.09-3.37-7.58-3.8-12.94,0-.11,0-1.53.4-1.58s1.39.91,1.39.91v0l11,13.79h0S48.35,144.62,48.1,145.2ZM24,87.76c.62-1.52,2.18-3.92,2.62-4.06s.56,2.37.56,2.37h0L27,101.62l0,0s0,.35,0,.8v.16c0,.83-.1,1.89-.46,1.9s-.42-.2-.62-.49c-.29-.61-.58-1.25-.86-1.94h0a25.61,25.61,0,0,1-2.19-9.43A14.84,14.84,0,0,1,24,87.76Zm43.54,57.32c-2.71-.14-9.2-1-13.88-5.47L42.14,125.28a9.62,9.62,0,0,0-.65-.82L40.28,123c-4.55-6.31-5.82-16.16-6.14-19.91l.25-21.3a39.17,39.17,0,0,1,6.4-19.52l15-18.4c1.32-1.58,7.78-8.83,15.63-10.47l15.43-1.84a81.59,81.59,0,0,1,14.74,0,32.07,32.07,0,0,1,9.21,3.09c.31.16.57.3.83.42L138.06,49.6c3.26,2.16,13.17,9,15,14,2,5.32.87,14.47.58,16.53l-13.86,43.19c-1.42,3.72-3.4,7.74-5.45,8.2-3.87.88-13.34-7.57-13.47-7.68a24.07,24.07,0,0,1-6.39-13.75h0a11.42,11.42,0,1,0-14.58,12.39h0l.08,0a11.25,11.25,0,0,0,1.18.27c2.93.71,10.31,2.78,14.63,6.28l2.9,2.86h0a41.47,41.47,0,0,1,3.39,4.82,3.56,3.56,0,0,1,.18,3.75c-.68,1.36-4.36,1.63-4.36,1.63l.12,0Z"/></clipPath></defs><title>QCArchiveLogo</title><line class="b" x1="26.43" y1="31.51" x2="39.69" y2="46.38"/><rect class="b" x="31.44" y="256.4" width="5.09" height="19.92" transform="translate(-169.58 -137.24) rotate(-41.72)"/><path class="b" d="M54.84,250.45v-.12c0-11.92,8.91-21.8,21.31-21.8,7.64,0,12.22,2.71,16.44,6.69l-3.26,3.49c-3.55-3.37-7.52-5.78-13.24-5.78-9.33,0-16.32,7.58-16.32,17.28v.12c0,9.75,7,17.4,16.32,17.4,5.78,0,9.57-2.23,13.6-6.08l3.14,3.07c-4.4,4.45-9.22,7.4-16.86,7.4C63.81,272.12,54.84,262.55,54.84,250.45Z" transform="translate(-0.93 -227.42)"/><path class="b" d="M.93,250.3v-.12c0-11.62,8.73-21.8,21.55-21.8s21.43,10.06,21.43,21.68c.06.06.06.06,0,.12,0,11.62-8.73,21.79-21.55,21.79S.93,261.92.93,250.3Zm38.05,0v-.12c0-9.58-7-17.4-16.62-17.4s-16.5,7.7-16.5,17.28v.12c0,9.57,7,17.4,16.62,17.4S39,259.87,39,250.3Z" transform="translate(-0.93 -227.42)"/><path class="b" d="M13.91,309.34h2.64l9.21,21.51H22.35l-2.15-5.32H10l-2.13,5.32H4.43ZM19.13,323l-4-9.87h-.06L11,323Z" transform="translate(-0.93 -227.42)"/><path class="b" d="M50.15,309.34h4.34l6.84,16.29h.12l6.78-16.29h4.34v21.51H69.65V313.17h-.06l-7.26,17.68H60.39l-7.26-17.68h-.06v17.68H50.15Z" transform="translate(-0.93 -227.42)"/><path class="b" d="M83.17,323.65a7.47,7.47,0,0,1,.59-2.95,7.79,7.79,0,0,1,1.63-2.4,7.66,7.66,0,0,1,2.43-1.62,7.75,7.75,0,0,1,8.44,1.62,7.79,7.79,0,0,1,1.63,2.4,7.7,7.7,0,0,1,0,5.91,7.56,7.56,0,0,1-1.63,2.4,7.42,7.42,0,0,1-2.43,1.61,7.83,7.83,0,0,1-6,0A7.64,7.64,0,0,1,85.39,329a7.45,7.45,0,0,1-2.22-5.36Zm2.92,0a6,6,0,0,0,.33,2,4.52,4.52,0,0,0,.94,1.58,4.37,4.37,0,0,0,1.49,1,5.32,5.32,0,0,0,4,0,4.28,4.28,0,0,0,1.49-1,4.52,4.52,0,0,0,.94-1.58,6.17,6.17,0,0,0,0-4,4.61,4.61,0,0,0-.94-1.58,4.41,4.41,0,0,0-1.49-1,5.32,5.32,0,0,0-4,0,4.51,4.51,0,0,0-1.49,1,4.61,4.61,0,0,0-.94,1.58A6,6,0,0,0,86.09,323.65Z" transform="translate(-0.93 -227.42)"/><path class="b" d="M108.81,307.88h2.74v23h-2.74Z" transform="translate(-0.93 -227.42)"/><path class="b" d="M123.91,326.35a4.79,4.79,0,0,0,2,1.75,6,6,0,0,0,2.54.56,5.16,5.16,0,0,0,1.48-.22,4.64,4.64,0,0,0,1.39-.69,3.73,3.73,0,0,0,1-1.12,2.93,2.93,0,0,0,.4-1.55,2.32,2.32,0,0,0-.79-1.9,6.67,6.67,0,0,0-2-1.09c-.78-.3-1.63-.58-2.55-.85a10.89,10.89,0,0,1-2.55-1.14,6.22,6.22,0,0,1-2-2,6.08,6.08,0,0,1-.79-3.33,5.38,5.38,0,0,1,.41-2,5.53,5.53,0,0,1,1.29-1.95,7,7,0,0,1,2.26-1.47,8.33,8.33,0,0,1,3.33-.59,11.73,11.73,0,0,1,3.37.48,5.82,5.82,0,0,1,2.83,2l-2.37,2.15a4,4,0,0,0-1.55-1.36,4.85,4.85,0,0,0-2.28-.52,5.55,5.55,0,0,0-2,.32,3.58,3.58,0,0,0-1.29.82,2.76,2.76,0,0,0-.69,1.08,3.3,3.3,0,0,0-.19,1.06,2.72,2.72,0,0,0,.79,2.1,6,6,0,0,0,2,1.18,22.53,22.53,0,0,0,2.55.82,10.62,10.62,0,0,1,2.55,1,6,6,0,0,1,2,1.76,5.23,5.23,0,0,1,.79,3.05,6.5,6.5,0,0,1-.59,2.8,6.31,6.31,0,0,1-1.6,2.1,7.15,7.15,0,0,1-2.37,1.3,9,9,0,0,1-2.92.46,10.69,10.69,0,0,1-3.91-.73,6.48,6.48,0,0,1-2.95-2.25Z" transform="translate(-0.93 -227.42)"/><path class="b" d="M147.48,326.35a4.79,4.79,0,0,0,2,1.75,6,6,0,0,0,2.54.56,5.22,5.22,0,0,0,1.49-.22,4.58,4.58,0,0,0,1.38-.69,3.77,3.77,0,0,0,1-1.12,3,3,0,0,0,.39-1.55,2.32,2.32,0,0,0-.79-1.9,6.54,6.54,0,0,0-2-1.09c-.78-.3-1.63-.58-2.55-.85a10.89,10.89,0,0,1-2.55-1.14,6.32,6.32,0,0,1-2-2,6.08,6.08,0,0,1-.79-3.33,5.76,5.76,0,0,1,1.7-3.95,7,7,0,0,1,2.27-1.47,8.32,8.32,0,0,1,3.32-.59,11.68,11.68,0,0,1,3.37.48,5.78,5.78,0,0,1,2.83,2l-2.37,2.15a3.9,3.9,0,0,0-1.55-1.36,4.85,4.85,0,0,0-2.28-.52,5.59,5.59,0,0,0-2,.32,3.58,3.58,0,0,0-1.29.82,2.85,2.85,0,0,0-.68,1.08,3.08,3.08,0,0,0-.2,1.06,2.72,2.72,0,0,0,.79,2.1,6.21,6.21,0,0,0,2,1.18,23.92,23.92,0,0,0,2.55.82,10.62,10.62,0,0,1,2.55,1,5.9,5.9,0,0,1,2,1.76,5.16,5.16,0,0,1,.79,3.05,6.5,6.5,0,0,1-.59,2.8,6.31,6.31,0,0,1-1.6,2.1,7,7,0,0,1-2.36,1.3,9.07,9.07,0,0,1-2.92.46,10.74,10.74,0,0,1-3.92-.73,6.48,6.48,0,0,1-2.95-2.25Z" transform="translate(-0.93 -227.42)"/><path class="b" d="M170.42,309.34h2.92v21.51h-2.92Z" transform="translate(-0.93 -227.42)"/><path class="b" d="M200.68,309.34h7.56a8.91,8.91,0,0,1,3.4.56,5.81,5.81,0,0,1,2.12,1.43,4.93,4.93,0,0,1,1.07,1.95,7.13,7.13,0,0,1,0,4.16,4.82,4.82,0,0,1-1.07,1.94,5.69,5.69,0,0,1-2.12,1.43,8.72,8.72,0,0,1-3.4.56h-4.65v9.48h-2.91Zm2.91,9.48h3.83a9.56,9.56,0,0,0,1.69-.14,4.44,4.44,0,0,0,1.49-.5,2.73,2.73,0,0,0,1-1,4.16,4.16,0,0,0,0-3.56,2.69,2.69,0,0,0-1-1.05,4.68,4.68,0,0,0-1.49-.5,10.61,10.61,0,0,0-1.69-.14h-3.83Z" transform="translate(-0.93 -227.42)"/><path class="b" d="M224.68,316.45h2.73v2.22h.06a4,4,0,0,1,.73-1.05,4.68,4.68,0,0,1,1-.8,5.27,5.27,0,0,1,1.23-.54,4.7,4.7,0,0,1,1.33-.19,3.91,3.91,0,0,1,1.22.18l-.12,3a5.89,5.89,0,0,0-.67-.16,3.79,3.79,0,0,0-.67-.06,4,4,0,0,0-3.07,1.13,4.92,4.92,0,0,0-1.06,3.49v7.23h-2.73Z" transform="translate(-0.93 -227.42)"/><path class="b" d="M241.35,323.65a7.31,7.31,0,0,1,.6-2.95,7.68,7.68,0,0,1,14.12,0,7.57,7.57,0,0,1-1.62,8.31,7.64,7.64,0,0,1-2.43,1.61,7.85,7.85,0,0,1-6,0,7.64,7.64,0,0,1-2.43-1.61,7.56,7.56,0,0,1-2.22-5.36Zm2.92,0a5.75,5.75,0,0,0,.34,2,4.37,4.37,0,0,0,.94,1.58,4.19,4.19,0,0,0,1.49,1,5.3,5.3,0,0,0,3.94,0,4.19,4.19,0,0,0,1.49-1,4.54,4.54,0,0,0,.95-1.58,6.35,6.35,0,0,0,0-4,4.63,4.63,0,0,0-.95-1.58,4.32,4.32,0,0,0-1.49-1,5.3,5.3,0,0,0-3.94,0,4.32,4.32,0,0,0-1.49,1,4.46,4.46,0,0,0-.94,1.58A5.75,5.75,0,0,0,244.27,323.65Z" transform="translate(-0.93 -227.42)"/><path class="b" d="M269.73,316.45v16.47c0,.36,0,.84-.08,1.44a4.87,4.87,0,0,1-.48,1.73,3.73,3.73,0,0,1-1.31,1.44,4.46,4.46,0,0,1-2.54.61,6.54,6.54,0,0,1-.89-.06,4.25,4.25,0,0,1-.87-.21l.3-2.52c.17.06.35.11.55.16a2.45,2.45,0,0,0,.58.08,1.69,1.69,0,0,0,1.56-.71,4,4,0,0,0,.44-2.09V316.45Zm-3.37-5.16a2,2,0,1,1,.59,1.41A1.93,1.93,0,0,1,266.36,311.29Z" transform="translate(-0.93 -227.42)"/><path class="b" d="M282.82,324.65a3.67,3.67,0,0,0,.41,1.72,4.07,4.07,0,0,0,1.08,1.32,4.75,4.75,0,0,0,1.55.85,5.61,5.61,0,0,0,1.82.31,4.05,4.05,0,0,0,2.22-.6,7,7,0,0,0,1.73-1.56l2.07,1.58a7.62,7.62,0,0,1-6.38,3,8.06,8.06,0,0,1-3.09-.58,6.81,6.81,0,0,1-2.34-1.6,7.32,7.32,0,0,1-1.47-2.4,8.57,8.57,0,0,1-.51-3,7.76,7.76,0,0,1,.56-3,7.35,7.35,0,0,1,1.55-2.4,7.05,7.05,0,0,1,2.35-1.6,7.64,7.64,0,0,1,3-.57,7.18,7.18,0,0,1,3.23.66,6.51,6.51,0,0,1,2.18,1.75,7.15,7.15,0,0,1,1.23,2.43,10.25,10.25,0,0,1,.38,2.75v1Zm8.63-2.18a5.77,5.77,0,0,0-.29-1.67,3.47,3.47,0,0,0-2.07-2.21,4.71,4.71,0,0,0-1.8-.32,4.45,4.45,0,0,0-1.84.38,4.54,4.54,0,0,0-2.31,2.34,3.8,3.8,0,0,0-.32,1.48Z" transform="translate(-0.93 -227.42)"/><path class="b" d="M314.63,320.28a5.64,5.64,0,0,0-1.6-1.2,5,5,0,0,0-3.95,0,4,4,0,0,0-1.39,1.12,5,5,0,0,0-.85,1.64,6.23,6.23,0,0,0-.29,1.93,5.46,5.46,0,0,0,.33,1.9,4.86,4.86,0,0,0,.94,1.57,4.37,4.37,0,0,0,1.46,1,4.56,4.56,0,0,0,1.91.38,4.32,4.32,0,0,0,2-.41,5,5,0,0,0,1.52-1.2l1.94,1.95a6.07,6.07,0,0,1-2.47,1.7,8.8,8.8,0,0,1-3,.52,8.32,8.32,0,0,1-3.05-.55,7,7,0,0,1-2.38-1.54,6.55,6.55,0,0,1-1.55-2.37,8.08,8.08,0,0,1-.55-3.05,8.29,8.29,0,0,1,.55-3.07,6.8,6.8,0,0,1,3.9-4,8,8,0,0,1,3.08-.56,8.15,8.15,0,0,1,3,.56,6.69,6.69,0,0,1,2.5,1.71Z" transform="translate(-0.93 -227.42)"/><path class="b" d="M333.37,318.82h-3.92v6.53q0,.61,0,1.2a3.23,3.23,0,0,0,.23,1.07,1.66,1.66,0,0,0,.61.75,2,2,0,0,0,1.2.29,5.81,5.81,0,0,0,1-.09,2.92,2.92,0,0,0,.94-.33v2.49a3.54,3.54,0,0,1-1.26.38,9.73,9.73,0,0,1-1.2.11,5.36,5.36,0,0,1-2.44-.45,3,3,0,0,1-1.28-1.13,3.76,3.76,0,0,1-.49-1.57c-.05-.58-.07-1.16-.07-1.75v-7.5h-3.16v-2.37h3.16v-4h2.73v4h3.92Z" transform="translate(-0.93 -227.42)"/><path class="c" d="M125.24,228.93h4.46l19.2,42.44h-5.11l-4.94-11.14H115.91l-5,11.14H106ZM137,256l-9.57-21.5L117.78,256Z" transform="translate(-0.93 -227.42)"/><path class="c" d="M157.63,240.24h4.64v8.13c2.28-5.18,6.8-8.91,12.7-8.67v5h-.36c-6.8,0-12.34,4.87-12.34,14.27v12.4h-4.64Z" transform="translate(-0.93 -227.42)"/><path class="c" d="M180,256v-.12a16.21,16.21,0,0,1,28.41-10.72l-3.07,3.25c-2.46-2.59-5.23-4.69-9.45-4.69-6.32,0-11.14,5.35-11.14,12v.12c0,6.74,4.94,12.1,11.44,12.1,4,0,7.05-2,9.52-4.64l2.95,2.77c-3.13,3.49-6.87,6-12.71,6A16,16,0,0,1,180,256Z" transform="translate(-0.93 -227.42)"/><path class="c" d="M217.47,227.42h4.64v18.24a11.8,11.8,0,0,1,10.66-6.08c7.52,0,11.92,5.06,11.92,12.46v19.33h-4.64V253.19c0-5.78-3.13-9.39-8.61-9.39s-9.33,3.91-9.33,9.75v17.82h-4.64Z" transform="translate(-0.93 -227.42)"/><path class="c" d="M255.88,228.32h5.3v5.12h-5.3Zm.3,11.92h4.64v31.13h-4.64Z" transform="translate(-0.93 -227.42)"/><path class="c" d="M269.73,240.24h5.12l10.47,25.83,10.54-25.83h5l-13.54,31.37h-4.1Z" transform="translate(-0.93 -227.42)"/><path class="c" d="M321.26,268.06a12.88,12.88,0,0,0,9.81-4.4l2.89,2.59a16.06,16.06,0,0,1-12.82,5.84c-8.55,0-15.53-6.56-15.53-16.25,0-9,6.32-16.26,14.93-16.26,9.21,0,14.51,7.35,14.51,16.5,0,.42,0,.9-.06,1.62H310.3C311,264.26,315.78,268.06,321.26,268.06ZM330.35,254c-.54-5.66-3.79-10.48-9.93-10.48-5.36,0-9.45,4.46-10.12,10.48Z" transform="translate(-0.93 -227.42)"/><line class="d" x1="4.44" y1="63.61" x2="333.83" y2="63.61"/></svg>